<?xml version="1.0" standalone="no"?>
<!DOCTYPE svg PUBLIC "-//W3C//DTD SVG 20010904//EN"
 "http://www.w3.org/TR/2001/REC-SVG-20010904/DTD/svg10.dtd">
<svg version="1.0" xmlns="http://www.w3.org/2000/svg"
 width="2849.000000pt" height="1369.000000pt" viewBox="0 0 2849.000000 1369.000000"
 preserveAspectRatio="xMidYMid meet">

<g transform="translate(0.000000,1369.000000) scale(0.100000,-0.100000)"
fill="#000000" stroke="none">
<path d="M17321 13609 c-74 -46 -119 -68 -131 -64 -13 4 -20 0 -25 -14 -4 -14
-208 -142 -608 -382 -330 -198 -606 -368 -613 -377 -7 -9 -59 -98 -117 -197
-529 -907 -949 -1802 -1199 -2548 -49 -148 -88 -273 -86 -279 2 -5 12 16 22
48 10 33 54 156 98 274 266 714 758 1668 1295 2516 l70 109 119 69 c131 76
628 350 797 440 l108 58 -16 -38 c-330 -782 -738 -1811 -1005 -2534 -692
-1876 -1183 -3620 -1470 -5218 -12 -68 -24 -122 -25 -120 -2 2 -8 192 -14 423
-72 2762 -159 4743 -271 6190 -53 682 -111 1187 -181 1590 l-11 64 -61 -33
c-34 -19 -222 -120 -417 -226 -195 -106 -359 -197 -365 -202 -13 -12 19 3 415
186 184 86 338 152 342 148 12 -12 64 -249 87 -392 79 -490 117 -1575 128
-3640 8 -1676 -29 -4997 -54 -4820 -2 14 -45 313 -94 665 -525 3734 -1010
6525 -1335 7685 -74 263 -166 520 -218 610 l-20 34 -9 -37 c-5 -20 -14 -37
-20 -37 -7 0 -19 -4 -27 -10 -12 -7 -12 -12 4 -28 17 -19 14 -31 -69 -332 -47
-172 -84 -314 -83 -315 2 -2 48 125 103 281 55 156 103 284 106 284 14 0 81
-144 113 -242 173 -527 466 -2415 720 -4628 54 -468 53 -479 -19 -130 -194
949 -308 1474 -416 1920 -218 898 -376 1413 -526 1718 -59 118 -75 131 -22 17
286 -611 653 -2653 1058 -5890 73 -580 196 -1617 207 -1740 l6 -70 -21 32
c-11 18 -38 74 -60 125 -316 742 -878 1665 -1503 2469 -461 593 -886 1075
-1468 1663 -644 650 -1255 1200 -1970 1772 -354 283 -846 648 -864 641 -6 -3
-324 -105 -706 -227 -382 -123 -698 -226 -703 -230 -4 -3 66 -53 155 -110 90
-57 245 -158 346 -223 l182 -119 -57 -27 c-32 -15 -372 -171 -755 -346 -384
-175 -698 -321 -698 -324 0 -3 121 -42 268 -85 1418 -421 2821 -1189 4147
-2270 194 -158 228 -189 135 -123 -125 90 -446 304 -560 374 -695 427 -1546
801 -2425 1064 -204 61 -695 186 -751 191 -28 3 -151 -101 -1318 -1116 -708
-616 -1283 -1123 -1279 -1127 23 -23 261 -103 423 -143 571 -140 1789 -352
3390 -591 1073 -160 1521 -248 2050 -401 215 -62 532 -165 527 -171 -3 -2 -56
9 -119 26 -225 60 -1051 221 -1413 276 -1471 221 -2654 309 -4633 343 l-392 7
111 120 c61 66 143 156 182 200 62 68 65 74 22 35 -151 -134 -405 -374 -401
-377 2 -3 163 -13 358 -24 1881 -101 3222 -258 4733 -555 330 -64 1039 -238
935 -229 -30 3 -107 10 -170 16 -63 6 -304 13 -535 15 l-420 6 -795 -52
c-1006 -65 -1655 -85 -2290 -69 -825 20 -1493 98 -1890 220 -134 41 -133 41
-80 86 75 63 313 274 340 301 14 13 -82 -56 -213 -154 l-239 -178 24 -18 c13
-9 73 -35 133 -58 532 -195 1516 -317 2770 -344 462 -10 661 -9 1375 6 1109
24 1418 13 1975 -67 182 -26 648 -115 641 -122 -2 -3 -46 0 -98 6 -506 60
-1319 67 -1918 15 -560 -47 -1016 -119 -1890 -297 -1063 -217 -1995 -363
-2625 -411 -239 -19 -555 -31 -555 -21 0 4 105 147 233 318 285 381 414 557
394 537 -8 -8 -178 -211 -376 -450 -237 -285 -356 -437 -348 -441 26 -14 422
-20 647 -10 743 34 1626 140 2845 341 589 97 897 136 1380 177 309 26 1259 26
1565 0 253 -22 550 -59 410 -52 -453 24 -626 27 -908 16 -692 -27 -1099 -82
-1992 -266 -1849 -381 -3087 -591 -3828 -651 -148 -11 -82 -13 133 -4 713 32
2247 233 3965 520 851 142 1703 176 2464 99 502 -51 979 -145 1435 -284 165
-50 485 -165 478 -171 -2 -3 -78 14 -168 36 -1344 331 -2971 355 -4684 69
-363 -61 -882 -165 -1132 -228 -606 -152 -1402 -298 -2202 -403 -305 -40 -548
-74 -540 -76 8 -1 266 20 574 47 777 70 1663 193 2195 306 513 108 1373 217
2110 267 296 20 1268 17 1560 -6 398 -30 401 -33 35 -35 -755 -3 -1437 -66
-2189 -202 -432 -78 -701 -140 -1421 -329 -870 -228 -1857 -430 -2622 -536
-150 -21 -271 -40 -269 -42 7 -6 433 38 761 79 803 100 1546 229 2395 418
1075 238 2046 343 3020 328 634 -11 1150 -62 1710 -173 892 -175 1640 -451
2355 -869 236 -138 448 -244 563 -281 66 -21 97 -25 149 -22 59 4 69 7 92 35
24 28 32 31 106 36 46 3 148 23 238 46 250 66 465 85 682 61 44 -5 120 -12
168 -16 l88 -7 51 53 c29 30 90 79 137 110 152 100 239 178 616 550 388 383
620 600 946 886 1561 1367 3143 2318 4607 2769 1073 330 2080 391 3021 184
143 -32 431 -112 489 -136 19 -8 36 -12 39 -10 2 3 -33 18 -79 35 -479 172
-931 267 -1443 303 -241 17 -744 6 -995 -20 -1305 -140 -2696 -670 -4170
-1589 -174 -108 -537 -348 -785 -518 -121 -82 -113 -75 122 132 1282 1129
2632 1953 3913 2388 632 216 1197 335 1835 388 195 16 768 16 960 -1 267 -22
667 -79 698 -98 6 -4 36 -8 66 -9 l56 -3 -35 28 c-32 27 -33 31 -22 55 17 37
17 36 -32 36 -52 0 -11 -32 -421 325 -171 149 -319 277 -330 285 -11 8 117
-120 284 -285 243 -239 300 -301 283 -303 -12 -2 -119 6 -239 18 -590 56
-1058 73 -1418 51 -1673 -103 -3378 -792 -5156 -2082 -447 -325 -951 -735
-1374 -1118 -164 -149 -159 -139 70 128 1686 1962 3631 3248 5681 3755 636
157 1384 253 1998 255 60 1 111 3 113 4 2 2 -22 20 -52 41 -47 31 -55 41 -55
67 0 31 -1 31 -36 26 -35 -6 -59 8 -493 300 -982 660 -1155 775 -1141 761 8
-8 328 -246 710 -528 382 -282 703 -520 713 -530 17 -16 12 -17 -103 -24 -422
-24 -1066 -107 -1525 -196 -1713 -335 -3343 -1163 -4870 -2475 -483 -415
-1045 -972 -1474 -1460 -229 -261 -511 -604 -694 -844 -48 -62 -87 -110 -87
-107 0 19 264 477 418 726 620 1000 1388 1955 2274 2825 1121 1102 2364 2012
3803 2785 378 203 1205 600 1249 600 9 0 16 4 16 8 0 4 15 14 33 21 l32 14
-38 10 c-30 9 -39 17 -44 39 -6 32 -13 34 -51 14 -26 -13 -53 -7 -427 105
-219 65 -400 117 -402 116 -1 -2 156 -61 350 -132 193 -71 356 -132 361 -136
4 -4 -92 -56 -215 -115 -646 -311 -1414 -706 -1814 -931 -1425 -805 -2640
-1732 -3743 -2858 -141 -143 -216 -214 -186 -175 351 455 650 813 1033 1235
190 210 882 902 1086 1086 712 643 1352 1131 2080 1586 323 202 855 503 888
503 8 0 17 4 19 8 2 5 41 29 86 54 l84 46 -101 12 c-71 9 -101 16 -101 26 0
22 -18 26 -48 10 -27 -14 -122 -4 -1233 130 -662 79 -1213 143 -1224 142 -11
-2 480 -85 1090 -186 611 -101 1123 -187 1139 -191 28 -7 23 -10 -90 -76
-1429 -825 -2289 -1441 -3289 -2354 -223 -204 -826 -806 -1041 -1041 -703
-766 -1329 -1564 -1907 -2430 -104 -157 -186 -274 -182 -260 31 104 178 475
308 777 804 1866 2139 3968 3992 6288 128 160 253 315 278 346 26 31 47 59 47
63 0 3 -14 6 -32 6 -17 0 -40 7 -50 17 -17 15 -20 15 -41 -5 -22 -21 -33 -22
-198 -22 -96 0 -259 -3 -364 -7 l-190 -8 337 -15 c185 -9 340 -19 344 -22 5
-5 -232 -304 -561 -708 -223 -274 -794 -1002 -1101 -1405 -968 -1268 -1812
-2538 -2349 -3532 -93 -172 -170 -311 -172 -310 -3 4 109 283 260 648 103 249
423 942 577 1250 513 1024 1145 2123 1894 3294 136 211 737 1115 881 1323 47
67 83 122 80 122 -3 0 -36 -9 -74 -19 -64 -18 -70 -18 -85 -3 -15 16 -18 15
-39 -10 -20 -25 -109 -50 -1026 -295 -553 -147 -998 -269 -990 -270 8 -1 439
91 959 206 520 115 947 207 948 205 2 -1 -84 -130 -190 -286 -1129 -1646
-1807 -2714 -2473 -3893 -445 -787 -990 -1924 -1230 -2565 -53 -142 -80 -201
-70 -154 3 10 23 125 45 254 223 1284 605 2767 1092 4240 360 1089 718 2031
1242 3273 25 59 42 107 38 106 -4 0 -58 -32 -121 -70z m-9354 -2936 c1257
-958 2198 -1778 3009 -2625 969 -1012 1670 -1934 2222 -2925 99 -178 262 -497
245 -478 -6 6 -58 84 -118 175 -431 660 -1003 1358 -1681 2051 -164 168 -396
395 -514 505 -118 110 -278 258 -355 329 -231 214 -709 614 -1102 922 -765
601 -1614 1193 -2528 1766 -148 93 -271 170 -273 171 -1 2 96 38 215 81 120
43 306 111 413 151 107 40 198 73 202 73 3 1 122 -88 265 -196z m-763 -635
c1167 -783 2143 -1539 3091 -2393 236 -213 784 -755 1061 -1052 437 -467 835
-946 1165 -1403 159 -220 161 -226 23 -80 -228 240 -764 777 -954 954 -903
844 -1816 1542 -2760 2110 -967 583 -1998 1027 -2945 1271 -99 25 -187 48
-195 51 -8 3 147 88 345 189 198 101 493 253 655 339 162 85 297 155 299 155
3 1 99 -63 215 -141z m-712 -1558 c873 -205 1732 -509 2483 -880 571 -283
1136 -646 1481 -952 528 -468 1151 -1097 1634 -1648 204 -233 568 -671 664
-799 15 -20 -2 -10 -89 54 -38 28 -164 112 -280 186 -973 626 -2095 1070
-3305 1308 -414 81 -729 126 -1640 236 -1424 172 -2814 376 -3284 482 l-69 16
74 66 c300 269 1173 1073 1774 1634 198 185 366 336 372 336 7 1 90 -17 185
-39z m6865 -382 c-3 -8 -6 -5 -6 6 -1 11 2 17 5 13 3 -3 4 -12 1 -19z"/>
<path d="M17038 12283 c7 -3 16 -2 19 1 4 3 -2 6 -13 5 -11 0 -14 -3 -6 -6z"/>
<path d="M16998 12273 c7 -3 16 -2 19 1 4 3 -2 6 -13 5 -11 0 -14 -3 -6 -6z"/>
<path d="M19573 11333 c9 -2 23 -2 30 0 6 3 -1 5 -18 5 -16 0 -22 -2 -12 -5z"/>
<path d="M23581 6355 c686 -763 2956 -3315 2949 -3315 -22 0 -599 252 -1150
503 -435 198 -452 206 -445 217 3 5 -7 12 -22 15 -75 15 -148 42 -248 92 -305
153 -781 325 -1160 418 -497 122 -899 173 -1460 182 -740 12 -1377 -66 -2190
-268 -1122 -280 -2357 -808 -3500 -1497 -365 -220 -588 -386 -786 -582 -122
-121 -195 -214 -225 -285 -18 -45 -18 -99 1 -115 8 -7 15 -20 15 -29 0 -8 24
-67 54 -131 77 -164 78 -171 15 -256 -79 -105 -272 -292 -369 -356 -219 -144
-433 -215 -727 -239 -428 -35 -1029 115 -1533 383 l-114 61 -471 -12 c-2908
-73 -6110 -192 -9215 -341 -709 -34 -1903 -95 -2150 -110 -91 -5 -178 -10
-195 -10 -27 0 72 102 920 946 860 856 935 933 795 817 -290 -239 -1432 -1207
-2088 -1770 l-283 -243 93 0 c51 0 424 -5 829 -10 1529 -20 4533 -30 6449 -20
1855 10 2629 17 4306 41 l832 12 153 -71 c433 -199 860 -322 1253 -361 140
-14 428 -14 554 0 562 61 1043 314 1408 742 l49 57 530 -40 c2736 -207 6287
-432 9245 -585 1191 -61 2782 -137 2786 -132 2 2 -1145 1027 -1259 1126 -70
61 -65 55 445 -483 312 -328 442 -472 430 -474 -9 -1 -262 27 -562 62 -3386
404 -7550 841 -10865 1141 -335 30 -629 58 -653 61 l-43 5 108 38 c142 50 303
124 490 227 1378 756 2947 1167 4318 1130 963 -26 1823 -221 2680 -608 589
-267 1094 -465 1675 -659 476 -158 801 -248 1162 -320 242 -48 298 -50 93 -4
-724 165 -1707 543 -2735 1052 -419 208 -621 297 -899 398 -589 214 -1192 346
-1836 400 -99 9 -337 19 -530 23 -377 7 -372 12 30 32 966 47 2064 -88 3135
-386 448 -125 1068 -342 1540 -539 476 -199 1017 -385 1235 -425 39 -7 75 -17
81 -21 6 -5 13 -6 16 -4 3 3 24 1 47 -4 l42 -9 -27 35 c-21 27 -25 41 -20 66
5 25 4 29 -6 19 -7 -7 -15 -12 -20 -12 -4 0 -150 189 -323 420 -174 231 -318
420 -321 420 -2 0 26 -46 64 -102 38 -57 167 -251 286 -431 l216 -329 -42 7
c-147 25 -737 256 -1182 462 -2133 989 -4178 1325 -6143 1008 -260 -42 -764
-152 -918 -200 -44 -14 85 50 262 129 969 433 2002 730 2853 821 80 8 163 18
185 21 22 3 153 11 290 19 262 14 686 8 935 -15 670 -61 1344 -243 1940 -525
356 -168 1473 -619 1895 -765 140 -48 457 -142 462 -136 4 3 -3345 3539 -3430
3621 l-42 40 36 -40z"/>
<path d="M8555 2019 c-865 -40 -1869 -166 -2777 -349 -402 -80 -864 -191
-1676 -400 -719 -185 -1521 -338 -2147 -410 -184 -21 -628 -60 -633 -56 -1 2
147 147 330 323 183 176 464 449 623 607 l290 287 -724 -643 c-657 -584 -721
-643 -695 -647 81 -9 797 31 1124 65 539 54 1404 198 1965 325 1396 318 2408
467 3665 541 285 17 1297 17 1580 0 930 -54 1686 -163 2490 -357 734 -178
1045 -185 1045 -26 0 77 -97 168 -275 260 -205 105 -409 171 -735 236 -642
130 -1391 216 -2115 245 -292 11 -1083 11 -1335 -1z"/>
<path d="M14122 1819 c-241 -21 -488 -115 -705 -265 -98 -69 -305 -274 -366
-363 -25 -35 -38 -60 -30 -55 8 5 64 42 124 82 313 208 679 340 1035 372 316
29 708 -46 1083 -206 43 -19 81 -34 85 -34 8 0 -64 63 -153 133 -191 151 -400
253 -627 307 -75 18 -283 42 -333 39 -11 -1 -62 -5 -113 -10z"/>
<path d="M26668 1263 c6 -2 18 -2 25 0 6 3 1 5 -13 5 -14 0 -19 -2 -12 -5z"/>
</g>
</svg>
